<?xml version="1.0" encoding="utf-8"?>
<!-- Generator: Adobe Illustrator 25.4.1, SVG Export Plug-In . SVG Version: 6.00 Build 0)  -->
<svg version="1.1" id="Layer_1" xmlns="http://www.w3.org/2000/svg" xmlns:xlink="http://www.w3.org/1999/xlink" x="0px" y="0px"
	 viewBox="0 0 512 512" style="enable-background:new 0 0 512 512;" xml:space="preserve">
<g>
	<g>
		<g>
			<path d="M237.3,415.1c-2.6-2.6-6.4-3.8-10-3c-0.7,0.1-1.4,0.4-2.1,0.6c-0.7,0.3-1.3,0.6-1.9,1c-0.6,0.4-1.2,0.9-1.7,1.4
				s-1,1.1-1.4,1.7c-0.4,0.6-0.7,1.2-1,1.9c-0.3,0.7-0.5,1.4-0.6,2.1s-0.2,1.4-0.2,2.2c0,0.7,0.1,1.5,0.2,2.2
				c0.1,0.7,0.4,1.4,0.6,2.1c0.3,0.7,0.6,1.3,1,1.9c0.4,0.6,0.9,1.2,1.4,1.7s1.1,1,1.7,1.4c0.6,0.4,1.2,0.7,1.9,1
				c0.7,0.3,1.4,0.5,2.1,0.6c0.7,0.1,1.4,0.2,2.2,0.2c2.9,0,5.8-1.2,7.8-3.3c0.5-0.5,1-1.1,1.4-1.7c0.4-0.6,0.7-1.2,1-1.9
				c0.3-0.7,0.5-1.4,0.6-2.1c0.1-0.7,0.2-1.4,0.2-2.2C240.5,420,239.4,417.1,237.3,415.1z"/>
		</g>
	</g>
	<g>
		<g>
			<path d="M437,75C388.7,26.6,324.4,0,256,0c-0.2,0-0.4,0-0.6,0c0,0-0.1,0-0.1,0c0,0-0.1,0-0.1,0C187.9,0.2,124.7,26.2,76.8,73.2
				c-0.7,0.4-1.4,0.9-2,1.6c-0.6,0.6-1.1,1.3-1.6,2c-47,47.9-73,111.2-73.2,178.4c0,0,0,0.1,0,0.1c0,0,0,0.1,0,0.1
				c0,0.2,0,0.4,0,0.6c0,68.4,26.6,132.7,75,181c48.4,48.4,112.6,75,181,75s132.7-26.6,181-75c48.4-48.4,75-112.6,75-181
				S485.4,123.3,437,75z M489.2,239.5c-21.4-7.7-64.6-21.6-120.5-31.2c32.4-45.8,53.1-85.8,62.9-106.6
				C464.4,139.1,485.5,186.9,489.2,239.5z M408.7,79.1c-20.8,9.8-60.8,30.4-106.5,62.8c-9.3-54.8-22.9-97.4-30.7-119.2
				C323.8,26.2,371.4,46.9,408.7,79.1z M239,22.8c-7.8,21.8-21.3,64.4-30.6,119.1c-45-31.9-84.5-52.4-105.6-62.4
				C139.8,47.3,187.1,26.6,239,22.8z M79.5,102.8c10,21,30.5,60.5,62.4,105.6c-54.7,9.3-97.3,22.9-119.1,30.6
				C26.6,187.1,47.3,139.8,79.5,102.8z M22.7,271.6c21.8,7.8,64.4,21.3,119.2,30.7c-32.4,45.7-53,85.7-62.8,106.5
				C46.9,371.4,26.2,323.8,22.7,271.6z M255.3,466.7c-1.5-4.5-3-9.4-4.7-14.8c-1.8-5.9-8-9.2-13.8-7.4s-9.2,8-7.4,13.8
				c3.9,12.8,7.4,23.3,10.1,30.9c-52.6-3.7-100.4-24.8-137.7-57.7c20.7-9.8,60.8-30.4,106.6-62.9c1.3,7.3,2.6,14.7,4.1,22
				c1.2,6,7.1,9.9,13.1,8.7c6-1.2,9.9-7.1,8.7-13.1c-2.6-12.9-4.9-26-6.7-38.9c-0.6-3.9-3.1-7.2-6.7-8.7c-3.6-1.5-7.8-1-10.9,1.4
				c-41.2,30.7-79.5,52.2-104,64.6c12.4-24.5,33.9-62.8,64.6-104c2.3-3.1,2.9-7.3,1.4-10.9c-1.5-3.6-4.8-6.2-8.7-6.7
				c-50.9-7.4-93.1-19.3-119.3-27.8c26.1-8.5,68.3-20.4,119.3-27.8c3.9-0.6,7.2-3.1,8.7-6.7s1-7.8-1.4-10.9
				c-30.7-41.2-52.2-79.5-64.6-104c24.5,12.4,62.8,33.9,104,64.6c3.1,2.3,7.3,2.9,10.9,1.4c3.6-1.5,6.2-4.8,6.7-8.7
				c7.4-50.9,19.3-93.1,27.8-119.3c8.5,26.1,20.4,68.3,27.8,119.3c0.6,3.9,3.1,7.2,6.7,8.7c3.6,1.5,7.8,1,10.9-1.4
				c41.2-30.7,79.5-52.2,104-64.6c-12.4,24.5-33.9,62.8-64.6,104c-2.3,3.1-2.9,7.3-1.4,10.9c1.5,3.6,4.8,6.2,8.7,6.7
				c50.9,7.4,93.1,19.3,119.3,27.8c-26.1,8.5-68.3,20.4-119.3,27.8c-3.9,0.6-7.2,3.1-8.7,6.7s-1,7.8,1.4,10.9
				c30.7,41.2,52.2,79.5,64.6,104c-24.5-12.4-62.8-33.9-104-64.6c-3.1-2.3-7.3-2.9-10.9-1.4c-3.6,1.5-6.2,4.8-6.7,8.7
				C275.8,398.3,263.8,440.6,255.3,466.7z M271.1,489.3c7.7-21.3,21.6-64.6,31.2-120.6c46.4,32.9,87,53.7,107.5,63.3
				C372.2,464.9,324,485.9,271.1,489.3z M432,409.7c-9.6-20.5-30.4-61-63.3-107.5c56-9.5,99.3-23.5,120.6-31.2
				C485.9,324,464.9,372.2,432,409.7z"/>
		</g>
	</g>
	<g>
		<g>
			<path d="M310.8,304.1c-17.1-9.9-27.8-28.3-27.8-48.1s10.6-38.2,27.8-48.1c3.4-2,5.5-5.6,5.5-9.6s-2.1-7.6-5.5-9.6
				c-11.8-6.8-25.2-10.4-38.9-10.4c-42.8,0-77.7,34.9-77.7,77.7s34.9,77.7,77.7,77.7c13.6,0,27.1-3.6,38.9-10.4
				c3.4-2,5.5-5.6,5.5-9.6C316.4,309.7,314.2,306,310.8,304.1z M272,311.5c-30.6,0-55.5-24.9-55.5-55.5s24.9-55.5,55.5-55.5
				c3.8,0,7.5,0.4,11.1,1.1c-14,14.4-22.2,33.9-22.2,54.4s8.2,40,22.2,54.4C279.4,311.1,275.7,311.5,272,311.5z"/>
		</g>
	</g>
</g>
</svg>
