<?xml version="1.0" encoding="iso-8859-1"?>
<!-- Generator: Adobe Illustrator 19.0.0, SVG Export Plug-In . SVG Version: 6.00 Build 0)  -->
<svg version="1.1" id="Capa_1" xmlns="http://www.w3.org/2000/svg" xmlns:xlink="http://www.w3.org/1999/xlink" x="0px" y="0px"
	 viewBox="0 0 496 496" style="enable-background:new 0 0 496 496;" xml:space="preserve">
<g>
	<g>
		<path d="M327.248,0c-10.888,0-21.12,4.24-28.816,11.936L11.936,298.44C4.24,306.136,0,316.368,0,327.248
			C0,349.72,18.28,368,40.752,368c10.88,0,21.12-4.24,28.816-11.936L356.064,69.56C363.76,61.864,368,51.632,368,40.752
			C368,18.28,349.72,0,327.248,0z M344.752,58.256L58.248,344.752C53.568,349.424,47.36,352,40.752,352
			C27.104,352,16,340.896,16,327.248c0-6.608,2.576-12.816,7.248-17.496L309.752,23.248C314.424,18.576,320.64,16,327.248,16
			C340.896,16,352,27.104,352,40.752C352,47.36,349.424,53.576,344.752,58.256z"/>
	</g>
</g>
<g>
	<g>
		<rect x="28.395" y="188.004" transform="matrix(0.7071 -0.7071 0.7071 0.7071 -118.6822 105.4839)" width="79.189" height="16"/>
	</g>
</g>
<g>
	<g>
		<rect x="121.733" y="47.148" transform="matrix(0.7071 -0.7072 0.7072 0.7071 2.9426 117.4003)" width="42.878" height="16.001"/>
	</g>
</g>
<g>
	<g>
		<rect x="260.411" y="163.998" transform="matrix(0.7071 -0.7071 0.7071 0.7071 -33.7516 262.5129)" width="79.189" height="16"/>
	</g>
</g>
<g>
	<g>
		<rect x="201.355" y="303.989" transform="matrix(0.7071 -0.7071 0.7071 0.7071 -155.0056 249.7605)" width="45.26" height="16"/>
	</g>
</g>
<g>
	<g>
		<path d="M184,0C82.536,0,0,82.544,0,184c0,28.456,6.352,55.784,18.88,81.224l14.36-7.072
			c-10.064-20.408-15.752-42.168-16.976-64.784l83.704-83.712L88.656,98.344l-71.96,71.968C23.704,84.072,95.992,16,184,16
			c15.848,0,31.304,2.184,46.224,6.464l-99.88,99.88l11.312,11.312l105.36-105.36c3.744,1.52,7.472,3.136,11.136,4.944l7.08-14.352
			C239.792,6.352,212.464,0,184,0z"/>
	</g>
</g>
<g>
	<g>
		<path d="M349.12,102.776l-14.36,7.072c9.832,19.944,15.464,41.168,16.864,63.216l-85.28,85.28l11.312,11.312l73.736-73.736
			C345.24,282.992,272.608,352,184,352c-15.848,0-31.304-2.184-46.224-6.464l99.88-99.88l-11.312-11.312l-105.36,105.36
			c-3.744-1.528-7.472-3.136-11.136-4.944l-7.08,14.36C128.208,361.648,155.536,368,184,368c101.464,0,184-82.536,184-184
			C368,155.544,361.648,128.216,349.12,102.776z"/>
	</g>
</g>
<g>
	<g>
		<path d="M408,320c-48.52,0-88,39.48-88,88c0,48.52,39.48,88,88,88c48.52,0,88-39.48,88-88C496,359.48,456.52,320,408,320z
			 M399.952,336.48C399.688,345.072,392.656,352,384,352c-4.92,0-9.432-2.312-12.416-6.008
			C380.088,340.976,389.68,337.624,399.952,336.48z M354.272,455.768c-6.544-7.352-11.632-16.016-14.736-25.592
			C342.56,426.336,347.032,424,352,424c8.824,0,16,7.176,16,16C368,448.04,362.016,454.656,354.272,455.768z M408,480
			c-14.896,0-28.744-4.544-40.24-12.32C377.408,462.16,384,451.888,384,440c0-17.648-14.352-32-32-32
			c-5.672,0-11.072,1.464-15.792,4.136C336.128,410.76,336,409.392,336,408c0-20.648,8.784-39.24,22.752-52.384
			C364.712,363.264,373.96,368,384,368c17.488,0,31.696-14.104,31.952-31.536C451.92,340.44,480,370.984,480,408
			C480,447.704,447.704,480,408,480z"/>
	</g>
</g>
<g>
	<g>
		<path d="M456,392v-16c-17.648,0-32,14.352-32,32s14.352,32,32,32v-16c-8.824,0-16-7.176-16-16C440,399.176,447.176,392,456,392z"
			/>
	</g>
</g>
<g>
	<g>
		<path d="M56,384c-30.872,0-56,25.128-56,56s25.128,56,56,56s56-25.128,56-56S86.872,384,56,384z M56,480
			c-22.056,0-40-17.944-40-40c0-22.056,17.944-40,40-40c22.056,0,40,17.944,40,40C96,462.056,78.056,480,56,480z"/>
	</g>
</g>
<g>
	<g>
		<rect x="152" y="432" width="16" height="16"/>
	</g>
</g>
<g>
	<g>
		<rect x="240" y="392" width="16" height="16"/>
	</g>
</g>
<g>
	<g>
		<rect x="288" y="480" width="16" height="16"/>
	</g>
</g>
<g>
	<g>
		<path d="M464,32c-17.648,0-32,14.352-32,32s14.352,32,32,32s32-14.352,32-32S481.648,32,464,32z M464,80c-8.824,0-16-7.176-16-16
			s7.176-16,16-16c8.824,0,16,7.176,16,16S472.824,80,464,80z"/>
	</g>
</g>
<g>
	<g>
		<rect x="392" y="152" width="16" height="16"/>
	</g>
</g>
<g>
	<g>
		<rect x="480" y="192" width="16" height="16"/>
	</g>
</g>
<g>
	<g>
		<rect x="432" y="264" width="16" height="16"/>
	</g>
</g>
<g>
</g>
<g>
</g>
<g>
</g>
<g>
</g>
<g>
</g>
<g>
</g>
<g>
</g>
<g>
</g>
<g>
</g>
<g>
</g>
<g>
</g>
<g>
</g>
<g>
</g>
<g>
</g>
<g>
</g>
</svg>
