<svg xmlns="http://www.w3.org/2000/svg" viewBox="0 0 32 32"><defs><style>.cls-1{fill:#fff;}</style></defs><g id="Layer_2" data-name="Layer 2"><g id="Layer_1-2" data-name="Layer 1"><path class="cls-1" d="M26.6,32a14.77,14.77,0,0,1-6.76-1.9A40.31,40.31,0,0,1,1.14,10.45,10.36,10.36,0,0,1,.26,3.57,5,5,0,0,1,6.56.25a1.75,1.75,0,0,1,.89.87C8.56,3.4,9.61,5.72,10.67,8a1.58,1.58,0,0,1-.4,2c-.66.61-1.27,1.27-1.92,1.9a1.36,1.36,0,0,0-.17,2,45,45,0,0,0,10,10,1.36,1.36,0,0,0,2-.19c.65-.67,1.33-1.31,2-2A1.52,1.52,0,0,1,24,21.37c2.37,1.08,4.75,2.15,7.09,3.29a1.62,1.62,0,0,1,.81,1C32.43,29.57,30.49,32.12,26.6,32Z"/></g></g></svg>